<?xml version="1.0" encoding="UTF-8"?>
<svg enable-background="new 0 0 132.27 132.61" version="1.1" viewBox="0 0 132.27 132.61" xml:space="preserve" xmlns="http://www.w3.org/2000/svg">
<style type="text/css">
	.st0{fill:#FFFFFF;}
</style>


	<path class="st0" d="m75.45 66.3c0 5.13-4.18 9.31-9.31 9.31s-9.31-4.18-9.31-9.31 4.18-9.31 9.31-9.31 9.31 4.18 9.31 9.31zm-24.39-3.03c1.41-7.03 7.64-12.35 15.08-12.35s13.67 5.31 15.08 12.35h29.53c-1.56-23.28-20.93-41.69-44.61-41.69s-43.05 18.4-44.61 41.69h29.53zm30.16 6.07c-1.41 7.03-7.64 12.35-15.08 12.35s-13.67-5.31-15.08-12.35h-29.53c1.56 23.28 20.93 41.69 44.61 41.69s43.05-18.4 44.61-41.69h-29.53z"/>

</svg>
