<?xml version="1.0" encoding="UTF-8"?>
<svg enable-background="new 0 0 132.61 132.61" version="1.1" viewBox="0 0 132.61 132.61" xml:space="preserve" xmlns="http://www.w3.org/2000/svg">
<style type="text/css">
	.st0{fill:#E6E6E6;}
	.st1{fill:#E53935;}
	.st2{fill:#FFFFFF;}
	.st3{fill:#212121;}
</style>


	<path class="st0" d="m66.3 84.61c-10.11 0-18.3-8.2-18.3-18.3h-48c0 36.62 29.69 66.3 66.3 66.3s66.3-29.69 66.3-66.3h-48c0.01 10.1-8.19 18.3-18.3 18.3z"/>
	<path class="st1" d="M66.3,0C29.69,0,0,29.69,0,66.3h48C48,56.2,56.2,48,66.3,48s18.3,8.2,18.3,18.3h48   C132.61,29.69,102.92,0,66.3,0z"/>
	<circle class="st2" cx="66.3" cy="66.3" r="18.3"/>
	<path class="st3" d="m66.3 43.5c-11.03 0-20.26 7.88-22.36 18.3h-43.77c-0.1 1.49-0.17 2.99-0.17 4.5s0.07 3.01 0.17 4.5h43.78c2.1 10.43 11.32 18.3 22.36 18.3s20.26-7.88 22.36-18.3h43.78c0.1-1.49 0.17-2.99 0.17-4.5s-0.07-3.01-0.17-4.5h-43.79c-2.09-10.42-11.32-18.3-22.36-18.3zm0 36.61c-7.61 0-13.8-6.19-13.8-13.8s6.19-13.8 13.8-13.8 13.8 6.19 13.8 13.8c0.01 7.61-6.18 13.8-13.8 13.8z"/>

</svg>
